<?xml version="1.0" encoding="UTF-8" standalone="no"?>
<!-- Created with Inkscape (http://www.inkscape.org/) -->

<svg
   xmlns:dc="http://purl.org/dc/elements/1.1/"
   xmlns:cc="http://creativecommons.org/ns#"
   xmlns:rdf="http://www.w3.org/1999/02/22-rdf-syntax-ns#"
   xmlns:svg="http://www.w3.org/2000/svg"
   xmlns="http://www.w3.org/2000/svg"
   xmlns:xlink="http://www.w3.org/1999/xlink"
   xmlns:sodipodi="http://sodipodi.sourceforge.net/DTD/sodipodi-0.dtd"
   xmlns:inkscape="http://www.inkscape.org/namespaces/inkscape"
   width="32"
   height="32"
   id="svg2"
   version="1.1"
   inkscape:version="0.47 r22583"
   inkscape:export-filename="/home/osswald/nao/projects-hrl-nao/trunk/ros-pkgs/nao_hrl/nao_dashboard/icons/templates/stiffness-on.png"
   inkscape:export-xdpi="90"
   inkscape:export-ydpi="90"
   sodipodi:docname="Stiffness.svg"
   style="display:inline">
  <defs
     id="defs4">
    <inkscape:perspective
       sodipodi:type="inkscape:persp3d"
       inkscape:vp_x="0 : 526.18109 : 1"
       inkscape:vp_y="0 : 1000 : 0"
       inkscape:vp_z="744.09448 : 526.18109 : 1"
       inkscape:persp3d-origin="372.04724 : 350.78739 : 1"
       id="perspective10" />
    <inkscape:perspective
       id="perspective3766"
       inkscape:persp3d-origin="0.5 : 0.33333333 : 1"
       inkscape:vp_z="1 : 0.5 : 1"
       inkscape:vp_y="0 : 1000 : 0"
       inkscape:vp_x="0 : 0.5 : 1"
       sodipodi:type="inkscape:persp3d" />
    <inkscape:perspective
       id="perspective2991"
       inkscape:persp3d-origin="0.5 : 0.33333333 : 1"
       inkscape:vp_z="1 : 0.5 : 1"
       inkscape:vp_y="0 : 1000 : 0"
       inkscape:vp_x="0 : 0.5 : 1"
       sodipodi:type="inkscape:persp3d" />
    <inkscape:perspective
       id="perspective2963"
       inkscape:persp3d-origin="0.5 : 0.33333333 : 1"
       inkscape:vp_z="1 : 0.5 : 1"
       inkscape:vp_y="0 : 1000 : 0"
       inkscape:vp_x="0 : 0.5 : 1"
       sodipodi:type="inkscape:persp3d" />
  </defs>
  <sodipodi:namedview
     id="base"
     pagecolor="#ffffff"
     bordercolor="#666666"
     borderopacity="1.0"
     inkscape:pageopacity="0.0"
     inkscape:pageshadow="2"
     inkscape:zoom="7.9999996"
     inkscape:cx="0.15977574"
     inkscape:cy="3.5636285"
     inkscape:document-units="px"
     inkscape:current-layer="layer3"
     showgrid="false"
     inkscape:window-width="1280"
     inkscape:window-height="949"
     inkscape:window-x="0"
     inkscape:window-y="25"
     inkscape:window-maximized="1" />
  <metadata
     id="metadata7">
    <rdf:RDF>
      <cc:Work
         rdf:about="">
        <dc:format>image/svg+xml</dc:format>
        <dc:type
           rdf:resource="http://purl.org/dc/dcmitype/StillImage" />
        <dc:title></dc:title>
      </cc:Work>
    </rdf:RDF>
  </metadata>
  <g
     inkscape:groupmode="layer"
     id="layer2"
     inkscape:label="Background"
     style="display:none">
    <image
       xlink:href="file:///home/osswald/nao/projects-hrl-nao/trunk/ros-pkgs/nao_hrl/nao_dashboard/icons/templates/template-grey-untoggled.png"
       width="32"
       height="32"
       id="image2927"
       x="0"
       y="0" />
  </g>
  <g
     style="display:none"
     inkscape:label="stiffness_off"
     id="g3002"
     inkscape:groupmode="layer">
    <g
       transform="matrix(1.2717111,0,0,1.2717111,-1.7352459,-6.1393807)"
       id="g3004">
      <path
         sodipodi:type="star"
         style="fill:#00ff00;stroke:#000000;stroke-width:0.89999998;stroke-linecap:square;stroke-miterlimit:4;stroke-dasharray:none"
         id="path3006"
         sodipodi:sides="8"
         sodipodi:cx="2.875"
         sodipodi:cy="-1.7500001"
         sodipodi:r1="11.448253"
         sodipodi:r2="8.0137768"
         sodipodi:arg1="1.0471976"
         sodipodi:arg2="1.4398967"
         inkscape:flatsided="false"
         inkscape:rounded="0.3"
         inkscape:randomized="0"
         d="M 8.5991259,8.1644778 C 7.280419,8.9258334 5.4306917,5.9964641 3.9210072,6.1952178 2.4113229,6.3939714 1.3827998,9.7022695 -0.08802637,9.3081627 -1.5588526,8.9140558 -0.79543047,5.5347242 -2.0034786,4.6077561 -3.2115267,3.6807881 -6.2781223,5.2928325 -7.0394779,3.9741257 -7.8008336,2.6554189 -4.8714642,0.80569155 -5.0702179,-0.70399288 -5.2689715,-2.2136772 -8.5772696,-3.2422003 -8.1831628,-4.7130265 c 0.3941068,-1.4708263 3.7734385,-0.7074041 4.7004066,-1.9154522 0.926968,-1.2080481 -0.6850764,-4.2746433 0.6336303,-5.0359993 1.3187069,-0.761356 3.16843423,2.1680137 4.6781187,1.96926 1.5096843,-0.1987536 2.5382074,-3.507052 4.0090336,-3.112945 1.4708262,0.394107 0.7074041,3.7734386 1.9154522,4.7004066 1.2080481,0.926968 4.2746434,-0.6850763 5.0359994,0.6336304 0.761356,1.3187069 -2.168014,3.1684342 -1.96926,4.6781186 0.198754,1.5096844 3.507052,2.53820745 3.112945,4.0090336 -0.394107,1.4708263 -3.773439,0.7074042 -4.7004068,1.9154523 -0.926968,1.2080481 0.6850764,4.2746437 -0.6336303,5.0359993 z"
         transform="matrix(0.54508971,0,0,0.54508971,8.3496829,22.318944)" />
      <path
         sodipodi:type="arc"
         style="fill:#ffffff;stroke:#000000;stroke-width:0.491;stroke-miterlimit:4;stroke-dasharray:none"
         id="path3008"
         sodipodi:cx="-32.125"
         sodipodi:cy="11.375"
         sodipodi:rx="2.125"
         sodipodi:ry="2.125"
         d="m -30,11.375 a 2.125,2.125 0 1 1 -4.25,0 2.125,2.125 0 1 1 4.25,0 z"
         transform="translate(42.041815,9.9900435)" />
    </g>
    <g
       transform="matrix(1.0008779,-0.38676299,0.38676299,1.0008779,-3.9934925,7.5503735)"
       id="g3010">
      <path
         transform="matrix(0.54508971,0,0,0.54508971,20.458887,11.447198)"
         d="M 8.5991259,8.1644778 C 7.280419,8.9258334 5.4306917,5.9964641 3.9210072,6.1952178 2.4113229,6.3939714 1.3827998,9.7022695 -0.08802637,9.3081627 -1.5588526,8.9140558 -0.79543047,5.5347242 -2.0034786,4.6077561 -3.2115267,3.6807881 -6.2781223,5.2928325 -7.0394779,3.9741257 -7.8008336,2.6554189 -4.8714642,0.80569155 -5.0702179,-0.70399288 -5.2689715,-2.2136772 -8.5772696,-3.2422003 -8.1831628,-4.7130265 c 0.3941068,-1.4708263 3.7734385,-0.7074041 4.7004066,-1.9154522 0.926968,-1.2080481 -0.6850764,-4.2746433 0.6336303,-5.0359993 1.3187069,-0.761356 3.16843423,2.1680137 4.6781187,1.96926 1.5096843,-0.1987536 2.5382074,-3.507052 4.0090336,-3.112945 1.4708262,0.394107 0.7074041,3.7734386 1.9154522,4.7004066 1.2080481,0.926968 4.2746434,-0.6850763 5.0359994,0.6336304 0.761356,1.3187069 -2.168014,3.1684342 -1.96926,4.6781186 0.198754,1.5096844 3.507052,2.53820745 3.112945,4.0090336 -0.394107,1.4708263 -3.773439,0.7074042 -4.7004068,1.9154523 -0.926968,1.2080481 0.6850764,4.2746437 -0.6336303,5.0359993 z"
         inkscape:randomized="0"
         inkscape:rounded="0.3"
         inkscape:flatsided="false"
         sodipodi:arg2="1.4398967"
         sodipodi:arg1="1.0471976"
         sodipodi:r2="8.0137768"
         sodipodi:r1="11.448253"
         sodipodi:cy="-1.7500001"
         sodipodi:cx="2.875"
         sodipodi:sides="8"
         id="path3013"
         style="fill:#00ff00;stroke:#000000;stroke-width:0.89999998;stroke-linecap:square;stroke-miterlimit:4;stroke-dasharray:none"
         sodipodi:type="star" />
      <path
         transform="translate(54.151019,-0.88170198)"
         d="m -30,11.375 a 2.125,2.125 0 1 1 -4.25,0 2.125,2.125 0 1 1 4.25,0 z"
         sodipodi:ry="2.125"
         sodipodi:rx="2.125"
         sodipodi:cy="11.375"
         sodipodi:cx="-32.125"
         id="path3015"
         style="fill:#ffffff;stroke:#000000;stroke-width:0.491;stroke-miterlimit:4;stroke-dasharray:none"
         sodipodi:type="arc" />
    </g>
  </g>
  <g
     inkscape:groupmode="layer"
     id="layer3"
     inkscape:label="stiffness_stale"
     style="display:none">
    <path
       sodipodi:type="star"
       style="fill:#cccccc;stroke:#000000;stroke-width:0.89999998;stroke-linecap:square;stroke-miterlimit:4;stroke-dasharray:none"
       id="path3635"
       sodipodi:sides="8"
       sodipodi:cx="2.875"
       sodipodi:cy="-1.7500001"
       sodipodi:r1="11.448253"
       sodipodi:r2="8.0137768"
       sodipodi:arg1="1.0471976"
       sodipodi:arg2="1.4398967"
       inkscape:flatsided="false"
       inkscape:rounded="0.3"
       inkscape:randomized="0"
       d="M 8.5991259,8.1644778 C 7.280419,8.9258334 5.4306917,5.9964641 3.9210072,6.1952178 2.4113229,6.3939714 1.3827998,9.7022695 -0.08802637,9.3081627 -1.5588526,8.9140558 -0.79543047,5.5347242 -2.0034786,4.6077561 -3.2115267,3.6807881 -6.2781223,5.2928325 -7.0394779,3.9741257 -7.8008336,2.6554189 -4.8714642,0.80569155 -5.0702179,-0.70399288 -5.2689715,-2.2136772 -8.5772696,-3.2422003 -8.1831628,-4.7130265 c 0.3941068,-1.4708263 3.7734385,-0.7074041 4.7004066,-1.9154522 0.926968,-1.2080481 -0.6850764,-4.2746433 0.6336303,-5.0359993 1.3187069,-0.761356 3.16843423,2.1680137 4.6781187,1.96926 1.5096843,-0.1987536 2.5382074,-3.507052 4.0090336,-3.112945 1.4708262,0.394107 0.7074041,3.7734386 1.9154522,4.7004066 1.2080481,0.926968 4.2746434,-0.6850763 5.0359994,0.6336304 0.761356,1.3187069 -2.168014,3.1684342 -1.96926,4.6781186 0.198754,1.5096844 3.507052,2.53820745 3.112945,4.0090336 -0.394107,1.4708263 -3.773439,0.7074042 -4.7004068,1.9154523 -0.926968,1.2080481 0.6850764,4.2746437 -0.6336303,5.0359993 z"
       transform="matrix(0.69319663,0,0,0.69319663,8.8831385,22.243868)" />
    <path
       sodipodi:type="arc"
       style="fill:#ffffff;stroke:#000000;stroke-width:0.491;stroke-miterlimit:4;stroke-dasharray:none"
       id="path3647"
       sodipodi:cx="-32.125"
       sodipodi:cy="11.375"
       sodipodi:rx="2.125"
       sodipodi:ry="2.125"
       d="m -30,11.375 a 2.125,2.125 0 1 1 -4.25,0 2.125,2.125 0 1 1 4.25,0 z"
       transform="matrix(1.2717111,0,0,1.2717111,51.729797,6.5650685)" />
    <path
       transform="matrix(0.54556824,-0.21082053,0.21082053,0.54556824,20.910708,11.094881)"
       d="M 8.5991259,8.1644778 C 7.280419,8.9258334 5.4306917,5.9964641 3.9210072,6.1952178 2.4113229,6.3939714 1.3827998,9.7022695 -0.08802637,9.3081627 -1.5588526,8.9140558 -0.79543047,5.5347242 -2.0034786,4.6077561 -3.2115267,3.6807881 -6.2781223,5.2928325 -7.0394779,3.9741257 -7.8008336,2.6554189 -4.8714642,0.80569155 -5.0702179,-0.70399288 -5.2689715,-2.2136772 -8.5772696,-3.2422003 -8.1831628,-4.7130265 c 0.3941068,-1.4708263 3.7734385,-0.7074041 4.7004066,-1.9154522 0.926968,-1.2080481 -0.6850764,-4.2746433 0.6336303,-5.0359993 1.3187069,-0.761356 3.16843423,2.1680137 4.6781187,1.96926 1.5096843,-0.1987536 2.5382074,-3.507052 4.0090336,-3.112945 1.4708262,0.394107 0.7074041,3.7734386 1.9154522,4.7004066 1.2080481,0.926968 4.2746434,-0.6850763 5.0359994,0.6336304 0.761356,1.3187069 -2.168014,3.1684342 -1.96926,4.6781186 0.198754,1.5096844 3.507052,2.53820745 3.112945,4.0090336 -0.394107,1.4708263 -3.773439,0.7074042 -4.7004068,1.9154523 -0.926968,1.2080481 0.6850764,4.2746437 -0.6336303,5.0359993 z"
       inkscape:randomized="0"
       inkscape:rounded="0.3"
       inkscape:flatsided="false"
       sodipodi:arg2="1.4398967"
       sodipodi:arg1="1.0471976"
       sodipodi:r2="8.0137768"
       sodipodi:r1="11.448253"
       sodipodi:cy="-1.7500001"
       sodipodi:cx="2.875"
       sodipodi:sides="8"
       id="path2850"
       style="fill:#cccccc;stroke:#000000;stroke-width:0.89999998;stroke-linecap:square;stroke-miterlimit:4;stroke-dasharray:none"
       sodipodi:type="star" />
    <path
       transform="matrix(1.0008779,-0.38676299,0.38676299,1.0008779,49.864056,-14.275713)"
       d="m -30,11.375 a 2.125,2.125 0 1 1 -4.25,0 2.125,2.125 0 1 1 4.25,0 z"
       sodipodi:ry="2.125"
       sodipodi:rx="2.125"
       sodipodi:cy="11.375"
       sodipodi:cx="-32.125"
       id="path2852"
       style="fill:#ffffff;stroke:#000000;stroke-width:0.491;stroke-miterlimit:4;stroke-dasharray:none"
       sodipodi:type="arc" />
  </g>
  <g
     style="display:none"
     inkscape:label="stiffness_partially"
     id="g3006"
     inkscape:groupmode="layer">
    <g
       id="g2865"
       transform="matrix(1.0027428,-0.38190211,0.38190211,1.0027428,-5.177801,5.7782596)">
      <path
         transform="matrix(0.54508971,0,0,0.54508971,18.779508,12.9498)"
         d="M 8.5991259,8.1644778 C 7.280419,8.9258334 5.4306917,5.9964641 3.9210072,6.1952178 2.4113229,6.3939714 1.3827998,9.7022695 -0.08802637,9.3081627 -1.5588526,8.9140558 -0.79543047,5.5347242 -2.0034786,4.6077561 -3.2115267,3.6807881 -6.2781223,5.2928325 -7.0394779,3.9741257 -7.8008336,2.6554189 -4.8714642,0.80569155 -5.0702179,-0.70399288 -5.2689715,-2.2136772 -8.5772696,-3.2422003 -8.1831628,-4.7130265 c 0.3941068,-1.4708263 3.7734385,-0.7074041 4.7004066,-1.9154522 0.926968,-1.2080481 -0.6850764,-4.2746433 0.6336303,-5.0359993 1.3187069,-0.761356 3.16843423,2.1680137 4.6781187,1.96926 1.5096843,-0.1987536 2.5382074,-3.507052 4.0090336,-3.112945 1.4708262,0.394107 0.7074041,3.7734386 1.9154522,4.7004066 1.2080481,0.926968 4.2746434,-0.6850763 5.0359994,0.6336304 0.761356,1.3187069 -2.168014,3.1684342 -1.96926,4.6781186 0.198754,1.5096844 3.507052,2.53820745 3.112945,4.0090336 -0.394107,1.4708263 -3.773439,0.7074042 -4.7004068,1.9154523 -0.926968,1.2080481 0.6850764,4.2746437 -0.6336303,5.0359993 z"
         inkscape:randomized="0"
         inkscape:rounded="0.3"
         inkscape:flatsided="false"
         sodipodi:arg2="1.4398967"
         sodipodi:arg1="1.0471976"
         sodipodi:r2="8.0137768"
         sodipodi:r1="11.448253"
         sodipodi:cy="-1.7500001"
         sodipodi:cx="2.875"
         sodipodi:sides="8"
         id="path3016"
         style="fill:#ffd42a;stroke:#000000;stroke-width:0.89999998;stroke-linecap:square;stroke-miterlimit:4;stroke-dasharray:none"
         sodipodi:type="star" />
      <path
         transform="translate(52.47164,0.6209)"
         d="m -30,11.375 a 2.125,2.125 0 1 1 -4.25,0 2.125,2.125 0 1 1 4.25,0 z"
         sodipodi:ry="2.125"
         sodipodi:rx="2.125"
         sodipodi:cy="11.375"
         sodipodi:cx="-32.125"
         id="path3018"
         style="fill:#ffffff;stroke:#000000;stroke-width:0.491;stroke-miterlimit:4;stroke-dasharray:none"
         sodipodi:type="arc" />
    </g>
    <g
       id="g2861"
       transform="matrix(1.2717111,0,0,1.2717111,-3.5376162,-4.3610265)">
      <path
         sodipodi:type="star"
         style="fill:#ffd42a;stroke:#000000;stroke-width:0.89999998;stroke-linecap:square;stroke-miterlimit:4;stroke-dasharray:none"
         id="path3010"
         sodipodi:sides="8"
         sodipodi:cx="2.875"
         sodipodi:cy="-1.7500001"
         sodipodi:r1="11.448253"
         sodipodi:r2="8.0137768"
         sodipodi:arg1="1.0471976"
         sodipodi:arg2="1.4398967"
         inkscape:flatsided="false"
         inkscape:rounded="0.3"
         inkscape:randomized="0"
         d="M 8.5991259,8.1644778 C 7.280419,8.9258334 5.4306917,5.9964641 3.9210072,6.1952178 2.4113229,6.3939714 1.3827998,9.7022695 -0.08802637,9.3081627 -1.5588526,8.9140558 -0.79543047,5.5347242 -2.0034786,4.6077561 -3.2115267,3.6807881 -6.2781223,5.2928325 -7.0394779,3.9741257 -7.8008336,2.6554189 -4.8714642,0.80569155 -5.0702179,-0.70399288 -5.2689715,-2.2136772 -8.5772696,-3.2422003 -8.1831628,-4.7130265 c 0.3941068,-1.4708263 3.7734385,-0.7074041 4.7004066,-1.9154522 0.926968,-1.2080481 -0.6850764,-4.2746433 0.6336303,-5.0359993 1.3187069,-0.761356 3.16843423,2.1680137 4.6781187,1.96926 1.5096843,-0.1987536 2.5382074,-3.507052 4.0090336,-3.112945 1.4708262,0.394107 0.7074041,3.7734386 1.9154522,4.7004066 1.2080481,0.926968 4.2746434,-0.6850763 5.0359994,0.6336304 0.761356,1.3187069 -2.168014,3.1684342 -1.96926,4.6781186 0.198754,1.5096844 3.507052,2.53820745 3.112945,4.0090336 -0.394107,1.4708263 -3.773439,0.7074042 -4.7004068,1.9154523 -0.926968,1.2080481 0.6850764,4.2746437 -0.6336303,5.0359993 z"
         transform="matrix(0.54508971,0,0,0.54508971,10.382615,20.3744)" />
      <path
         sodipodi:type="arc"
         style="fill:#ffffff;stroke:#000000;stroke-width:0.491;stroke-miterlimit:4;stroke-dasharray:none"
         id="path3012"
         sodipodi:cx="-32.125"
         sodipodi:cy="11.375"
         sodipodi:rx="2.125"
         sodipodi:ry="2.125"
         d="m -30,11.375 a 2.125,2.125 0 1 1 -4.25,0 2.125,2.125 0 1 1 4.25,0 z"
         transform="translate(44.074747,8.0455)" />
    </g>
  </g>
  <g
     inkscape:groupmode="layer"
     id="g2843"
     inkscape:label="stiffness_on"
     style="display:inline">
    <g
       id="g2869"
       transform="matrix(1.0027428,-0.38190211,0.38190211,1.0027428,-5.177801,5.7782596)">
      <path
         sodipodi:type="star"
         style="fill:#ff0000;stroke:#000000;stroke-width:0.89999998;stroke-linecap:square;stroke-miterlimit:4;stroke-dasharray:none"
         id="path2847"
         sodipodi:sides="8"
         sodipodi:cx="2.875"
         sodipodi:cy="-1.7500001"
         sodipodi:r1="11.448253"
         sodipodi:r2="8.0137768"
         sodipodi:arg1="1.0471976"
         sodipodi:arg2="1.4398967"
         inkscape:flatsided="false"
         inkscape:rounded="0.3"
         inkscape:randomized="0"
         d="M 8.5991259,8.1644778 C 7.280419,8.9258334 5.4306917,5.9964641 3.9210072,6.1952178 2.4113229,6.3939714 1.3827998,9.7022695 -0.08802637,9.3081627 -1.5588526,8.9140558 -0.79543047,5.5347242 -2.0034786,4.6077561 -3.2115267,3.6807881 -6.2781223,5.2928325 -7.0394779,3.9741257 -7.8008336,2.6554189 -4.8714642,0.80569155 -5.0702179,-0.70399288 -5.2689715,-2.2136772 -8.5772696,-3.2422003 -8.1831628,-4.7130265 c 0.3941068,-1.4708263 3.7734385,-0.7074041 4.7004066,-1.9154522 0.926968,-1.2080481 -0.6850764,-4.2746433 0.6336303,-5.0359993 1.3187069,-0.761356 3.16843423,2.1680137 4.6781187,1.96926 1.5096843,-0.1987536 2.5382074,-3.507052 4.0090336,-3.112945 1.4708262,0.394107 0.7074041,3.7734386 1.9154522,4.7004066 1.2080481,0.926968 4.2746434,-0.6850763 5.0359994,0.6336304 0.761356,1.3187069 -2.168014,3.1684342 -1.96926,4.6781186 0.198754,1.5096844 3.507052,2.53820745 3.112945,4.0090336 -0.394107,1.4708263 -3.773439,0.7074042 -4.7004068,1.9154523 -0.926968,1.2080481 0.6850764,4.2746437 -0.6336303,5.0359993 z"
         transform="matrix(0.54508971,0,0,0.54508971,18.779508,12.9498)" />
      <path
         sodipodi:type="arc"
         style="fill:#ffffff;stroke:#000000;stroke-width:0.491;stroke-miterlimit:4;stroke-dasharray:none"
         id="path2849"
         sodipodi:cx="-32.125"
         sodipodi:cy="11.375"
         sodipodi:rx="2.125"
         sodipodi:ry="2.125"
         d="m -30,11.375 a 2.125,2.125 0 1 1 -4.25,0 2.125,2.125 0 1 1 4.25,0 z"
         transform="translate(52.47164,0.6209)" />
    </g>
    <g
       id="g2873"
       transform="matrix(1.2717111,0,0,1.2717111,-3.5376162,-4.3610265)">
      <path
         transform="matrix(0.54508971,0,0,0.54508971,10.382615,20.3744)"
         d="M 8.5991259,8.1644778 C 7.280419,8.9258334 5.4306917,5.9964641 3.9210072,6.1952178 2.4113229,6.3939714 1.3827998,9.7022695 -0.08802637,9.3081627 -1.5588526,8.9140558 -0.79543047,5.5347242 -2.0034786,4.6077561 -3.2115267,3.6807881 -6.2781223,5.2928325 -7.0394779,3.9741257 -7.8008336,2.6554189 -4.8714642,0.80569155 -5.0702179,-0.70399288 -5.2689715,-2.2136772 -8.5772696,-3.2422003 -8.1831628,-4.7130265 c 0.3941068,-1.4708263 3.7734385,-0.7074041 4.7004066,-1.9154522 0.926968,-1.2080481 -0.6850764,-4.2746433 0.6336303,-5.0359993 1.3187069,-0.761356 3.16843423,2.1680137 4.6781187,1.96926 1.5096843,-0.1987536 2.5382074,-3.507052 4.0090336,-3.112945 1.4708262,0.394107 0.7074041,3.7734386 1.9154522,4.7004066 1.2080481,0.926968 4.2746434,-0.6850763 5.0359994,0.6336304 0.761356,1.3187069 -2.168014,3.1684342 -1.96926,4.6781186 0.198754,1.5096844 3.507052,2.53820745 3.112945,4.0090336 -0.394107,1.4708263 -3.773439,0.7074042 -4.7004068,1.9154523 -0.926968,1.2080481 0.6850764,4.2746437 -0.6336303,5.0359993 z"
         inkscape:randomized="0"
         inkscape:rounded="0.3"
         inkscape:flatsided="false"
         sodipodi:arg2="1.4398967"
         sodipodi:arg1="1.0471976"
         sodipodi:r2="8.0137768"
         sodipodi:r1="11.448253"
         sodipodi:cy="-1.7500001"
         sodipodi:cx="2.875"
         sodipodi:sides="8"
         id="path2845"
         style="fill:#ff0000;stroke:#000000;stroke-width:0.89999998;stroke-linecap:square;stroke-miterlimit:4;stroke-dasharray:none"
         sodipodi:type="star" />
      <path
         transform="translate(44.074747,8.0455)"
         d="m -30,11.375 a 2.125,2.125 0 1 1 -4.25,0 2.125,2.125 0 1 1 4.25,0 z"
         sodipodi:ry="2.125"
         sodipodi:rx="2.125"
         sodipodi:cy="11.375"
         sodipodi:cx="-32.125"
         id="path2851"
         style="fill:#ffffff;stroke:#000000;stroke-width:0.491;stroke-miterlimit:4;stroke-dasharray:none"
         sodipodi:type="arc" />
    </g>
  </g>
</svg>
